<?xml version="1.0" encoding="UTF-8" standalone="no"?>
<svg xmlns:rdf="http://www.w3.org/1999/02/22-rdf-syntax-ns#" xmlns="http://www.w3.org/2000/svg" height="289" viewBox="0 0 289 289" width="289" version="1.1" xmlns:cc="http://creativecommons.org/ns#" xmlns:dc="http://purl.org/dc/elements/1.1/">
<rect height="25.177" width="79.505" y="138.84" x="2.5018"/>
<rect height="197.39" width="30.751" y="55.406" x=".057678"/>
<path d="m0 55.689v-28.158h69.898c24.729 0 71.555 6.8468 71.555 68.226 0 36.807-31.256 52.421-45.053 59.645l61.948 76.193h91.762v-8.9443l38.802 19.791-38.36 19.56v-9.4869h-115.31l-73.553-92.41s-1.9911-1.5812-1.9911-7.9643c0-6.3832 6.266-13.001 10.014-14.23 3.7479-1.2298 13.095-3.0413 16.49-4.6976 3.3955-1.6564 22.946-9.7774 22.946-38.101s-17.806-39.587-39.67-39.587c-21.859 0.003-69.479 0.169-69.479 0.169z" fill-rule="evenodd" fill="#2594eb"/>
</svg>
